<svg width="444" height="446" viewBox="0 0 444 446" fill="none" xmlns="http://www.w3.org/2000/svg">
<rect x="22.9198" y="7.92003" width="412.16" height="412.16" rx="57.1627" stroke="#59139C" stroke-width="14.72"/>
<rect x="37.64" y="22.64" width="382.72" height="382.72" rx="42.688" stroke="#6817AD" stroke-width="14.72"/>
<rect x="52.36" y="37.36" width="353.28" height="353.28" rx="27.968" fill="#521194" stroke="#8C24CE" stroke-width="14.72"/>
<path d="M35.4122 240.374L63.743 154.246L122.465 143.766L153.344 166.545L195.697 158.986L238.051 151.427L259.143 119.372L317.865 108.891L374.241 179.901L404.916 351.771L369.72 399.433L296.266 412.543L282.237 399.001L239.884 406.56L197.53 414.12L186.597 432.116L115.598 444.788L66.0872 412.244L35.4122 240.374Z" fill="white"/>
<path d="M280.979 81.5321L266.507 118.739L309.065 111.144L298.575 78.3915L280.979 81.5321Z" fill="url(#paint0_linear_10_182)"/>
<path d="M57.3087 244.817C54.9223 231.446 63.9721 218.647 77.5219 216.228L326.134 171.857C339.683 169.438 352.603 178.317 354.99 191.687L361.658 229.051C364.045 242.421 354.994 255.221 341.444 257.639L291.558 266.543L257.348 272.649C255.386 272.999 253.559 273.878 252.067 275.188L240.385 285.451C238.664 286.963 236.554 287.978 234.291 288.382L219.147 291.084L204.005 293.787C201.741 294.191 199.411 293.969 197.273 293.146L182.762 287.558C180.909 286.844 178.89 286.652 176.928 287.002L142.718 293.107L92.8322 302.011C79.2824 304.429 66.3636 295.551 63.9772 282.18L57.3087 244.817Z" fill="#CED4E4"/>
<path d="M412.176 203.18L376.871 194.632L400.242 325.581L430.411 305.348L412.176 203.18Z" fill="white"/>
<path d="M423.453 266.359L397.847 270.929L377.206 196.508L400.243 325.582L430.419 305.391L423.453 266.359Z" fill="#3B5494" fill-opacity="0.25"/>
<path d="M88.24 115.249L114.69 145.153L72.1314 152.749L70.6438 118.39L88.24 115.249Z" fill="url(#paint1_linear_10_182)"/>
<path d="M7.87224 275.339L38.0411 255.106L61.4125 386.055L26.1071 377.508L7.87224 275.339Z" fill="white"/>
<path d="M59.1595 255.138C56.7393 241.578 65.77 228.624 79.3302 226.203L328.132 181.798C341.692 179.378 354.646 188.408 357.067 201.969L375.434 304.882C377.854 318.442 368.824 331.396 355.264 333.816L305.34 342.727L272.726 348.548C269.776 349.074 267.178 350.801 265.55 353.317L255.987 368.098C254.109 371.001 251.111 372.993 247.708 373.601L234.424 375.972L221.14 378.343C217.737 378.95 214.235 378.117 211.469 376.044L197.383 365.483C194.986 363.686 191.95 362.964 189.001 363.491L156.386 369.312L106.462 378.222C92.902 380.642 79.9474 371.612 77.5272 358.051L59.1595 255.138Z" fill="url(#paint2_linear_10_182)"/>
<circle cx="143.682" cy="295.119" r="12.2513" transform="rotate(-10.1195 143.682 295.119)" fill="white"/>
<circle cx="289.376" cy="269.115" r="12.2513" transform="rotate(-10.1195 289.376 269.115)" fill="white"/>
<path d="M200.786 286.373C201.604 291.28 208.146 301.093 220.413 298.64C233.07 296.109 233.906 285.147 233.906 280.24" stroke="white" stroke-width="7.36" stroke-linecap="round"/>
<path fill-rule="evenodd" clip-rule="evenodd" d="M90.3458 230.629C88.9019 230.887 87.9403 232.266 88.198 233.71L88.2173 233.818C88.475 235.262 89.8544 236.224 91.2983 235.966C92.7422 235.708 93.7038 234.329 93.4461 232.885L93.4268 232.777C93.1691 231.333 91.7896 230.371 90.3458 230.629ZM82.1649 232.772C83.5515 232.368 84.8879 233.373 85.0977 234.802C85.3074 236.231 84.3048 237.536 82.9429 238.017C82.1359 238.301 81.3567 238.663 80.6167 239.097C79.1247 239.972 77.8215 241.124 76.7815 242.489C75.7416 243.854 74.9853 245.404 74.5558 247.051C74.3528 247.829 74.2247 248.622 74.172 249.418C74.0745 250.893 73.093 252.261 71.631 252.475C70.1689 252.69 68.7883 251.675 68.7958 250.197C68.8033 248.715 68.9965 247.234 69.3735 245.789C69.9769 243.475 71.0395 241.297 72.5006 239.38C73.9616 237.463 75.7926 235.843 77.8888 234.614C79.2335 233.825 80.6706 233.207 82.1649 232.772Z" fill="white"/>
<path d="M135.332 153.292L250.547 132.729L238.327 151.8L153.211 166.991L135.332 153.292Z" fill="url(#paint3_linear_10_182)"/>
<path d="M428.485 294.558L414.102 213.969L427.441 222.516L438.067 282.052L428.485 294.558Z" fill="#9F3FFF"/>
<path d="M24.1814 366.717L9.79799 286.128L0.238881 298.762L10.8648 358.298L24.1814 366.717Z" fill="#9F3FFF"/>
<path d="M19.1486 338.518L44.7546 333.948L38.376 256.981L61.4129 386.056L26.1149 377.55L19.1486 338.518Z" fill="#3B5494" fill-opacity="0.25"/>
<path d="M395.111 101.029L394.161 129.618L421.734 137.231L393.145 136.281L385.532 163.854L386.482 135.265L358.909 127.652L387.498 128.602L395.111 101.029Z" fill="white" style="mix-blend-mode:overlay"/>
<path d="M141.391 46.4361L133.137 64.964L149.219 77.3238L130.692 69.0705L118.332 85.1526L126.585 66.6247L110.503 54.2649L129.031 62.5182L141.391 46.4361Z" fill="white" style="mix-blend-mode:overlay"/>
<path d="M64.8118 93.6481L64.353 107.466L77.6796 111.145L63.862 110.686L60.1824 124.013L60.6413 110.195L47.3147 106.516L61.1323 106.975L64.8118 93.6481Z" fill="white" style="mix-blend-mode:overlay"/>
<path d="M366.572 35.2587L366.113 49.0763L379.44 52.7558L365.622 52.297L361.943 65.6236L362.402 51.806L349.075 48.1264L362.893 48.5853L366.572 35.2587Z" fill="white" style="mix-blend-mode:overlay"/>
<path d="M155.585 110.821L155.126 124.639L168.453 128.318L154.635 127.86L150.956 141.186L151.414 127.369L138.088 123.689L151.905 124.148L155.585 110.821Z" fill="white" style="mix-blend-mode:overlay"/>
<path d="M257.724 15.1625L256.775 43.7511L284.347 51.364L255.759 50.4147L248.146 77.9874L249.095 49.3988L221.522 41.7858L250.111 42.7352L257.724 15.1625Z" fill="white" style="mix-blend-mode:overlay"/>
<path fill-rule="evenodd" clip-rule="evenodd" d="M57.7567 45.8667C57.6464 46.1758 57.9853 48.1617 60.4673 61.7534C62.7533 74.2707 63.3469 77.3462 63.5247 77.5924C63.8357 78.0231 64.428 78.2356 64.9366 78.099C65.3153 77.9972 65.4506 77.8816 69.4758 74.2203C73.3953 70.6553 73.6289 70.4549 73.6988 70.5967C74.163 71.5376 81.7002 85.4314 81.8147 85.5573C82.0891 85.859 82.7003 86.0256 83.1196 85.913C83.611 85.7809 83.8869 85.532 84.0621 85.0624C84.1867 84.7283 83.9379 83.2618 81.3998 69.3747C79.8599 60.9491 78.5607 53.9122 78.5127 53.7372C78.3261 53.0569 77.5775 52.6299 76.8935 52.8136C76.5149 52.9154 76.3796 53.0309 72.351 56.6953L68.1987 60.4721L68.1009 60.2815C67.2774 58.6786 60.125 45.4758 60.0138 45.3536C59.7408 45.0535 59.1288 44.8873 58.7105 44.9996C58.2262 45.1298 57.9204 45.4077 57.7567 45.8667Z" fill="#FFB82D"/>
<g filter="url(#filter0_f_10_182)">
<path fill-rule="evenodd" clip-rule="evenodd" d="M320.757 37.9413C320.526 38.8815 322.118 44.6087 333.492 83.7568C343.968 119.811 346.635 128.659 347.231 129.328C348.274 130.499 350.076 130.945 351.528 130.39C352.609 129.978 352.971 129.598 363.685 117.64C374.117 105.997 374.742 105.338 374.99 105.734C376.636 108.356 402.939 146.87 403.313 147.205C404.209 148.008 406.053 148.313 407.25 147.856C408.653 147.321 409.388 146.507 409.761 145.076C410.026 144.058 408.854 139.828 397.227 99.8299C390.172 75.5622 384.242 55.2981 384.048 54.799C383.296 52.8581 380.97 51.8301 379.018 52.5751C377.937 52.9877 377.575 53.3675 366.852 65.3352L355.8 77.67L355.456 77.1402C352.557 72.683 327.591 36.0814 327.227 35.756C326.336 34.9574 324.49 34.6537 323.296 35.1092C321.913 35.637 321.099 36.5447 320.757 37.9413Z" fill="#FFB82D"/>
</g>
<path fill-rule="evenodd" clip-rule="evenodd" d="M382.549 169.461C382.497 169.607 382.657 170.546 383.83 176.969C384.91 182.884 385.19 184.337 385.274 184.454C385.421 184.657 385.701 184.758 385.942 184.693C386.121 184.645 386.184 184.59 388.087 182.86C389.939 181.175 390.049 181.081 390.082 181.148C390.302 181.592 393.863 188.158 393.918 188.218C394.047 188.36 394.336 188.439 394.534 188.386C394.766 188.323 394.897 188.206 394.98 187.984C395.038 187.826 394.921 187.133 393.721 180.57C392.994 176.589 392.38 173.263 392.357 173.181C392.269 172.859 391.915 172.657 391.592 172.744C391.413 172.792 391.349 172.847 389.445 174.578L387.483 176.363L387.437 176.273C387.048 175.516 383.668 169.277 383.615 169.219C383.486 169.077 383.197 168.998 382.999 169.052C382.77 169.113 382.626 169.244 382.549 169.461Z" fill="#FFB82D"/>
<g filter="url(#filter1_f_10_182)">
<path fill-rule="evenodd" clip-rule="evenodd" d="M93.5264 175.453C93.3666 175.978 94.0892 179.268 99.3064 201.77C104.111 222.493 105.345 227.582 105.662 227.979C106.215 228.674 107.221 228.982 108.059 228.714C108.684 228.514 108.901 228.31 115.334 221.878C121.598 215.616 121.972 215.263 122.1 215.494C122.95 217.029 136.633 239.636 136.834 239.837C137.316 240.32 138.35 240.55 139.041 240.328C139.851 240.069 140.292 239.632 140.548 238.834C140.73 238.266 140.198 235.837 134.864 212.846C131.628 198.897 128.903 187.248 128.809 186.959C128.444 185.838 127.16 185.184 126.032 185.545C125.408 185.744 125.191 185.948 118.753 192.385L112.117 199.02L111.938 198.71C110.436 196.098 97.4505 174.614 97.2551 174.418C96.7757 173.939 95.7405 173.709 95.0509 173.93C94.2523 174.186 93.7635 174.674 93.5264 175.453Z" fill="#FFB82D"/>
</g>
<path fill-rule="evenodd" clip-rule="evenodd" d="M195.89 83.8533C195.78 84.1623 196.119 86.1482 198.601 99.7399C200.887 112.257 201.48 115.333 201.658 115.579C201.969 116.01 202.562 116.222 203.07 116.086C203.449 115.984 203.584 115.868 207.609 112.207C211.529 108.642 211.762 108.441 211.832 108.583C212.297 109.524 219.834 123.418 219.948 123.544C220.223 123.846 220.834 124.012 221.253 123.9C221.745 123.767 222.02 123.519 222.196 123.049C222.32 122.715 222.071 121.248 219.533 107.361C217.993 98.9356 216.694 91.8988 216.646 91.7238C216.46 91.0434 215.711 90.6165 215.027 90.8002C214.648 90.9019 214.513 91.0175 210.485 94.6818L206.332 98.4586L206.234 98.2681C205.411 96.6652 198.259 83.4624 198.147 83.3401C197.874 83.04 197.262 82.8739 196.844 82.9862C196.36 83.1163 196.054 83.3943 195.89 83.8533Z" fill="#FFB82D"/>
<g filter="url(#filter2_f_10_182)">
<path fill-rule="evenodd" clip-rule="evenodd" d="M374.477 369.987C374.367 370.296 374.705 372.282 377.188 385.873C379.474 398.391 380.067 401.466 380.245 401.712C380.556 402.143 381.148 402.356 381.657 402.219C382.035 402.117 382.171 402.002 386.196 398.34C390.116 394.775 390.349 394.575 390.419 394.717C390.883 395.658 398.42 409.551 398.535 409.677C398.809 409.979 399.421 410.146 399.84 410.033C400.331 409.901 400.607 409.652 400.782 409.182C400.907 408.848 400.658 407.382 398.12 393.495C396.58 385.069 395.281 378.032 395.233 377.857C395.046 377.177 394.298 376.75 393.614 376.934C393.235 377.035 393.1 377.151 389.071 380.815L384.919 384.592L384.821 384.402C383.998 382.799 376.845 369.596 376.734 369.474C376.461 369.174 375.849 369.007 375.431 369.12C374.946 369.25 374.641 369.528 374.477 369.987Z" fill="#FFB82D"/>
</g>
<g filter="url(#filter3_f_10_182)">
<path fill-rule="evenodd" clip-rule="evenodd" d="M42.3668 345.149C42.2136 345.652 42.9064 348.807 47.909 370.383C52.5163 390.253 53.6995 395.133 54.0028 395.514C54.5334 396.18 55.4978 396.476 56.3019 396.218C56.9006 396.027 57.1085 395.831 63.2771 389.664C69.2835 383.659 69.6423 383.321 69.765 383.542C70.5795 385.014 83.6996 406.691 83.8925 406.884C84.3547 407.347 85.346 407.567 86.0088 407.355C86.7858 407.107 87.2086 406.687 87.4537 405.922C87.6279 405.377 87.1186 403.048 82.004 381.003C78.9008 367.628 76.2882 356.458 76.198 356.182C75.8477 355.106 74.6168 354.479 73.5354 354.825C72.9368 355.017 72.729 355.212 66.5552 361.385L60.1921 367.746L60.021 367.449C58.5811 364.944 46.1294 344.344 45.9421 344.157C45.4824 343.697 44.4898 343.477 43.8285 343.688C43.0628 343.934 42.5942 344.402 42.3668 345.149Z" fill="#FFB82D"/>
</g>
<defs>
<filter id="filter0_f_10_182" x="294.241" y="8.40045" width="142.048" height="166.165" filterUnits="userSpaceOnUse" color-interpolation-filters="sRGB">
<feFlood flood-opacity="0" result="BackgroundImageFix"/>
<feBlend mode="normal" in="SourceGraphic" in2="BackgroundImageFix" result="shape"/>
<feGaussianBlur stdDeviation="13.248" result="effect1_foregroundBlur_10_182"/>
</filter>
<filter id="filter1_f_10_182" x="86.1468" y="166.486" width="61.7901" height="81.2873" filterUnits="userSpaceOnUse" color-interpolation-filters="sRGB">
<feFlood flood-opacity="0" result="BackgroundImageFix"/>
<feBlend mode="normal" in="SourceGraphic" in2="BackgroundImageFix" result="shape"/>
<feGaussianBlur stdDeviation="3.68" result="effect1_foregroundBlur_10_182"/>
</filter>
<filter id="filter2_f_10_182" x="365.627" y="360.252" width="44.0129" height="58.648" filterUnits="userSpaceOnUse" color-interpolation-filters="sRGB">
<feFlood flood-opacity="0" result="BackgroundImageFix"/>
<feBlend mode="normal" in="SourceGraphic" in2="BackgroundImageFix" result="shape"/>
<feGaussianBlur stdDeviation="4.416" result="effect1_foregroundBlur_10_182"/>
</filter>
<filter id="filter3_f_10_182" x="34.9879" y="336.248" width="59.8535" height="78.5486" filterUnits="userSpaceOnUse" color-interpolation-filters="sRGB">
<feFlood flood-opacity="0" result="BackgroundImageFix"/>
<feBlend mode="normal" in="SourceGraphic" in2="BackgroundImageFix" result="shape"/>
<feGaussianBlur stdDeviation="3.68" result="effect1_foregroundBlur_10_182"/>
</filter>
<linearGradient id="paint0_linear_10_182" x1="288.974" y1="74.482" x2="295.746" y2="118.518" gradientUnits="userSpaceOnUse">
<stop stop-color="#9F3FFF"/>
<stop offset="1" stop-color="#5F19A6"/>
</linearGradient>
<linearGradient id="paint1_linear_10_182" x1="78.3" y1="111.4" x2="87.18" y2="155.06" gradientUnits="userSpaceOnUse">
<stop stop-color="#9F3FFF"/>
<stop offset="1" stop-color="#5F19A6"/>
</linearGradient>
<linearGradient id="paint2_linear_10_182" x1="119.741" y1="210.559" x2="205.581" y2="422.939" gradientUnits="userSpaceOnUse">
<stop stop-color="#9F3FFF"/>
<stop offset="1" stop-color="#521194"/>
</linearGradient>
<linearGradient id="paint3_linear_10_182" x1="131.333" y1="107.7" x2="263.608" y2="190.686" gradientUnits="userSpaceOnUse">
<stop stop-color="#9F3FFF"/>
<stop offset="1" stop-color="#5F19A6"/>
</linearGradient>
</defs>
</svg>
